<?xml version="1.0" standalone="no"?>
<!DOCTYPE svg PUBLIC "-//W3C//DTD SVG 20010904//EN"
 "http://www.w3.org/TR/2001/REC-SVG-20010904/DTD/svg10.dtd">
<svg version="1.0" xmlns="http://www.w3.org/2000/svg"
 width="799.000000pt" height="152.000000pt" viewBox="0 0 799.000000 152.000000"
 preserveAspectRatio="xMidYMid meet">
<metadata>
Created by potrace 1.16, written by Peter Selinger 2001-2019
</metadata>
<g transform="translate(0.000000,152.000000) scale(0.100000,-0.100000)"
fill="#000000" stroke="none">
<path d="M2422 1125 c-67 -30 -95 -175 -48 -248 36 -55 131 -61 174 -12 26 31
30 90 7 122 -21 30 -75 46 -109 33 -36 -13 -36 -13 -36 8 0 52 67 83 92 42 17
-27 68 -28 61 -1 -14 53 -85 81 -141 56z"/>
<path d="M3805 1133 c-66 -17 -113 -99 -101 -175 14 -87 87 -139 172 -124 71
14 132 116 69 116 -16 0 -25 -6 -25 -15 0 -46 -82 -72 -127 -40 -49 34 -49
146 0 180 44 31 127 5 127 -40 0 -9 10 -15 25 -15 32 0 33 27 3 65 -34 43 -88
61 -143 48z"/>
<path d="M2140 1106 c0 -42 -11 -56 -41 -56 -22 0 -29 -5 -29 -20 0 -15 7 -20
29 -20 25 0 28 -3 23 -25 -3 -20 -10 -25 -33 -25 -22 0 -29 -5 -29 -20 0 -15
7 -20 26 -20 24 0 26 -3 22 -40 -3 -35 -1 -40 18 -40 17 0 23 8 28 40 5 35 10
40 32 40 25 0 25 -2 19 -40 -6 -38 -5 -40 19 -40 22 0 25 5 28 38 3 34 6 37
36 40 24 2 32 8 32 23 0 15 -7 19 -31 19 -24 0 -30 3 -25 16 3 9 6 20 6 25 0
5 14 9 30 9 23 0 30 4 30 20 0 15 -7 20 -28 20 -26 0 -27 2 -24 40 4 35 1 40
-16 40 -16 0 -22 -9 -27 -40 -6 -34 -10 -40 -32 -40 -24 0 -25 2 -19 40 6 38
5 40 -19 40 -20 0 -25 -5 -25 -24z"/>
<path d="M2616 1084 c-3 -26 -6 -62 -6 -80 0 -29 4 -34 23 -34 13 0 28 5 34
11 18 18 56 6 72 -23 12 -21 13 -31 3 -52 -15 -33 -65 -37 -84 -6 -11 18 -68
30 -68 15 0 -25 35 -65 65 -75 81 -27 145 16 145 97 0 61 -32 93 -95 93 -46 0
-53 8 -39 44 5 12 21 16 65 16 52 0 59 2 59 20 0 18 -7 20 -84 20 l-83 0 -7
-46z"/>
<path d="M2920 1110 c0 -17 7 -20 50 -20 l50 0 0 -125 0 -125 25 0 25 0 0 125
0 125 45 0 c38 0 45 3 45 20 0 19 -7 20 -120 20 -113 0 -120 -1 -120 -20z"/>
<path d="M3169 1021 c-52 -52 -33 -157 32 -180 45 -16 69 -14 106 9 36 21 56
74 46 121 -15 77 -127 107 -184 50z"/>
<path d="M3390 900 l0 -150 25 0 c23 0 25 3 25 49 l0 49 34 -10 c75 -23 133
34 123 121 -6 58 -41 91 -96 91 -20 0 -42 -5 -49 -12 -9 -9 -12 -9 -12 0 0 7
-11 12 -25 12 l-25 0 0 -150z"/>
<path d="M4041 1034 c-61 -43 -60 -147 2 -184 57 -35 131 -18 155 35 38 82 -8
165 -90 165 -24 0 -54 -7 -67 -16z"/>
<path d="M4250 945 l0 -105 25 0 c24 0 25 2 25 68 0 74 19 107 57 100 15 -3
18 -15 21 -86 3 -79 4 -82 26 -82 22 0 24 4 28 71 4 76 21 103 63 97 18 -3 20
-12 23 -85 3 -81 3 -83 27 -83 25 0 25 1 25 88 0 73 -3 92 -18 105 -23 21 -81
22 -109 2 -18 -13 -22 -13 -33 0 -17 20 -79 19 -102 -2 -17 -15 -18 -15 -18 0
0 10 -8 17 -20 17 -19 0 -20 -7 -20 -105z"/>
<path d="M4620 900 l0 -150 25 0 c23 0 25 3 25 49 l0 49 35 -11 c29 -8 42 -7
70 6 62 30 73 143 18 187 -29 22 -92 27 -111 8 -9 -9 -12 -9 -12 0 0 7 -11 12
-25 12 l-25 0 0 -150z"/>
<path d="M4882 1030 c-12 -12 -22 -27 -22 -35 0 -20 46 -20 54 0 8 22 53 19
66 -4 9 -18 6 -20 -37 -27 -75 -11 -113 -63 -79 -109 14 -19 15 -19 140 -16
l38 1 -3 84 c-5 105 -20 126 -89 126 -33 0 -53 -6 -68 -20z"/>
<path d="M5080 945 l0 -105 25 0 c24 0 25 2 25 65 0 69 20 105 58 105 33 0 42
-22 42 -97 0 -72 0 -73 26 -73 l26 0 -4 91 c-2 76 -6 93 -22 105 -24 17 -87
18 -105 2 -11 -10 -14 -10 -18 0 -3 6 -16 12 -29 12 -24 0 -24 -1 -24 -105z"/>
<path d="M5290 1047 c0 -2 18 -46 41 -97 l40 -94 -18 -45 c-10 -25 -20 -50
-22 -54 -2 -5 9 -7 25 -5 25 3 32 14 86 142 32 76 58 143 58 147 0 5 -11 9
-24 9 -20 0 -27 -10 -46 -60 -12 -33 -26 -60 -30 -60 -4 0 -18 27 -31 60 -21
53 -27 60 -51 60 -16 0 -28 -1 -28 -3z"/>
<path d="M6669 601 c-30 -24 -45 -61 -24 -61 8 0 25 11 39 25 29 29 39 31 61
9 23 -23 11 -51 -51 -114 -30 -31 -54 -61 -54 -68 0 -8 24 -12 80 -12 64 0 80
3 80 15 0 11 -13 15 -52 15 l-53 1 24 20 c64 53 93 138 57 168 -28 23 -79 24
-107 2z"/>
<path d="M2106 508 c-22 -57 -41 -109 -44 -115 -2 -7 3 -13 12 -13 10 0 23 15
32 35 13 33 17 35 60 35 42 0 46 -2 60 -35 9 -23 21 -35 34 -35 19 0 19 1 1
43 -10 23 -30 75 -45 115 -23 59 -32 72 -50 72 -18 0 -27 -16 -60 -102z"/>
<path d="M2596 508 c-22 -57 -41 -109 -44 -115 -2 -7 3 -13 12 -13 10 0 23 15
32 35 13 33 17 35 60 35 42 0 46 -2 60 -35 9 -23 21 -35 34 -35 19 0 19 1 1
43 -10 23 -30 75 -45 115 -23 59 -32 72 -50 72 -18 0 -27 -16 -60 -102z"/>
<path d="M6006 508 c-22 -57 -41 -109 -44 -115 -2 -7 3 -13 12 -13 10 0 23 15
32 35 13 33 17 35 60 35 42 0 46 -2 60 -35 9 -23 21 -35 34 -35 19 0 19 1 1
43 -10 23 -30 75 -45 115 -23 59 -32 72 -50 72 -18 0 -27 -16 -60 -102z"/>
<path d="M6827 548 c-3 -35 -3 -65 -1 -68 3 -2 14 1 24 8 43 27 90 9 90 -34 0
-47 -72 -65 -85 -23 -6 19 -45 27 -45 10 0 -42 55 -76 106 -66 60 11 81 89 37
138 -10 11 -31 17 -55 17 -35 0 -39 2 -36 23 3 19 10 22 51 25 33 2 47 7 47
18 0 11 -15 14 -64 14 l-63 0 -6 -62z"/>
<path d="M3560 530 c-11 -11 -20 -24 -20 -30 0 -16 37 -11 44 6 8 20 50 15 54
-7 2 -12 -7 -18 -33 -22 -48 -8 -65 -23 -65 -58 0 -36 34 -55 77 -44 15 5 36
7 46 6 15 -2 17 7 17 61 0 80 -17 108 -66 108 -21 0 -42 -8 -54 -20z"/>
<path d="M4272 543 c-18 -7 -42 -57 -42 -88 0 -34 50 -85 84 -85 27 0 85 44
74 56 -5 4 -23 -1 -42 -11 -34 -19 -36 -19 -55 0 -12 10 -21 22 -21 27 0 4 29
8 65 8 36 0 65 4 65 9 0 23 -24 73 -40 81 -20 10 -66 12 -88 3z"/>
<path d="M4678 539 c-22 -12 -41 -70 -33 -102 11 -41 39 -60 85 -55 41 4 51
-7 28 -30 -17 -17 -53 -15 -68 3 -15 19 -40 20 -40 2 0 -26 36 -47 78 -47 32
0 45 6 61 26 18 23 21 41 21 119 l0 92 -57 1 c-32 0 -66 -4 -75 -9z"/>
<path d="M4865 525 c-29 -28 -34 -88 -10 -122 31 -44 135 -35 135 12 0 20 -19
19 -41 -1 -21 -19 -55 -11 -69 17 -10 18 -7 19 55 19 63 0 65 1 65 25 0 36
-42 75 -80 75 -19 0 -40 -9 -55 -25z"/>
<path d="M5405 525 c-48 -48 -25 -135 41 -151 31 -8 69 8 84 36 9 17 8 20 -10
20 -11 0 -20 -4 -20 -9 0 -16 -38 -23 -60 -11 -11 6 -20 17 -20 25 0 12 14 15
60 15 59 0 60 0 60 28 0 65 -87 96 -135 47z"/>
<path d="M6200 429 c0 -112 1 -119 20 -119 17 0 20 7 20 40 0 38 1 39 25 28
57 -26 114 35 101 107 -9 47 -38 64 -108 63 l-58 -1 0 -118z"/>
</g>
</svg>